<?xml version="1.0" encoding="utf-8"?>
<svg version="1.1" id="Layer_1"
xmlns="http://www.w3.org/2000/svg"
xmlns:xlink="http://www.w3.org/1999/xlink"
width="344px" height="123px"
xml:space="preserve">
<g id="PathID_1" transform="matrix(1.1234, 0, 0, 1.1234, 125.85, 83.95)" opacity="1">
<path style="fill:#2E3AD3;fill-opacity:1" d="M3.75 0L3.75 -36.65L30.9 -36.65L30.9 -30.45L11.15 -30.45L11.15 -22.35L29.5 -22.35L29.5 -16.15L11.15 -16.15L11.15 -6.2L31.6 -6.2L31.6 0L3.75 0" />
</g>
<g id="PathID_2" transform="matrix(1.1234, 0, 0, 1.1234, 125.85, 83.95)" opacity="1">
</g>
<g id="PathID_3" transform="matrix(1.1234, 0, 0, 1.1234, 162.15, 83.95)" opacity="1">
<path style="fill:#2E3AD3;fill-opacity:1" d="M1.2 -7.55L8.25 -8.65Q8.7 -6.6 10.05 -5.55Q11.45 -4.5 13.9 -4.5Q16.65 -4.5 18 -5.45Q18.95 -6.15 18.95 -7.35Q18.95 -8.15 18.45 -8.65Q17.9 -9.15 16.1 -9.6Q7.6 -11.45 5.3 -13Q2.2 -15.15 2.2 -19Q2.2 -22.45 4.9 -24.8Q7.6 -27.15 13.35 -27.15Q18.8 -27.15 21.45 -25.35Q24.1 -23.6 25.1 -20.15L18.45 -18.9Q18 -20.45 16.8 -21.25Q15.65 -22.1 13.45 -22.1Q10.7 -22.1 9.5 -21.3Q8.75 -20.75 8.75 -19.9Q8.75 -19.15 9.4 -18.6Q10.35 -17.9 15.95 -16.6Q21.55 -15.35 23.8 -13.5Q26 -11.65 26 -8.3Q26 -4.65 22.95 -2Q19.9 0.6 13.9 0.6Q8.5 0.6 5.3 -1.55Q2.15 -3.75 1.2 -7.55" />
</g>
<g id="PathID_4" transform="matrix(1.1234, 0, 0, 1.1234, 162.15, 83.95)" opacity="1">
</g>
<g id="PathID_5" transform="matrix(1.1234, 0, 0, 1.1234, 192.1, 83.95)" opacity="1">
<path style="fill:#2E3AD3;fill-opacity:1" d="M3.7 -30.15L3.7 -36.65L10.75 -36.65L10.75 -30.15L3.7 -30.15M3.7 0L3.7 -26.55L10.75 -26.55L10.75 0L3.7 0" />
</g>
<g id="PathID_6" transform="matrix(1.1234, 0, 0, 1.1234, 192.1, 83.95)" opacity="1">
</g>
<g id="PathID_7" transform="matrix(1.1234, 0, 0, 1.1234, 207.7, 84.25)" opacity="1">
<path style="fill:#606AE9;fill-opacity:1" d="M3.75 0L3.75 -36.65L17.45 -36.65Q21.65 -36.65 24.15 -35.5Q26.7 -34.4 28.15 -32.1Q29.6 -29.8 29.6 -27.3Q29.6 -24.95 28.3 -22.85Q27 -20.8 24.45 -19.55Q27.8 -18.55 29.6 -16.2Q31.4 -13.85 31.4 -10.65Q31.4 -8.05 30.3 -5.8Q29.2 -3.6 27.6 -2.4Q26 -1.2 23.6 -0.6Q21.2 0 17.7 0L3.75 0M8.6 -21.3L16.45 -21.3Q19.65 -21.3 21.05 -21.7Q22.9 -22.25 23.85 -23.5Q24.8 -24.8 24.8 -26.7Q24.8 -28.5 23.9 -29.85Q23.05 -31.25 21.4 -31.75Q19.8 -32.3 15.85 -32.3L8.6 -32.3L8.6 -21.3M8.6 -4.35L17.7 -4.35Q20.05 -4.35 21 -4.5Q22.7 -4.8 23.8 -5.5Q24.95 -6.2 25.65 -7.55Q26.4 -8.9 26.4 -10.65Q26.4 -12.7 25.3 -14.2Q24.2 -15.7 22.35 -16.3Q20.5 -16.95 17 -16.95L8.6 -16.95L8.6 -4.35" />
</g>
<g id="PathID_8" transform="matrix(1.1234, 0, 0, 1.1234, 207.7, 84.25)" opacity="1">
</g>
<g id="PathID_9" transform="matrix(1.1234, 0, 0, 1.1234, 244, 84.25)" opacity="1">
<path style="fill:#606AE9;fill-opacity:1" d="M20.7 -3.35Q18.2 -1.15 15.85 -0.25Q13.55 0.6 10.9 0.6Q6.55 0.6 4.2 -1.5Q1.85 -3.65 1.85 -7Q1.85 -8.95 2.7 -10.55Q3.6 -12.15 5.05 -13.1Q6.5 -14.1 8.3 -14.6Q9.6 -14.95 12.3 -15.3Q17.75 -15.95 20.3 -16.85L20.35 -18Q20.35 -20.75 19.05 -21.85Q17.35 -23.4 13.95 -23.4Q10.75 -23.4 9.25 -22.25Q7.75 -21.15 7.05 -18.35L2.65 -18.95Q3.25 -21.75 4.6 -23.5Q6 -25.25 8.6 -26.2Q11.2 -27.15 14.6 -27.15Q18 -27.15 20.1 -26.3Q22.25 -25.5 23.25 -24.3Q24.25 -23.1 24.65 -21.25Q24.9 -20.1 24.9 -17.1L24.9 -11.1Q24.9 -4.85 25.15 -3.15Q25.45 -1.5 26.3 0L21.6 0Q20.9 -1.4 20.7 -3.35M20.3 -13.3Q17.85 -12.3 12.95 -11.6Q10.15 -11.2 9 -10.7Q7.85 -10.2 7.25 -9.2Q6.65 -8.25 6.65 -7.1Q6.65 -5.3 8 -4.1Q9.35 -2.95 12 -2.95Q14.6 -2.95 16.6 -4.05Q18.65 -5.2 19.6 -7.15Q20.3 -8.65 20.3 -11.65L20.3 -13.3" />
</g>
<g id="PathID_10" transform="matrix(1.1234, 0, 0, 1.1234, 244, 84.25)" opacity="1">
</g>
<g id="PathID_11" transform="matrix(1.1234, 0, 0, 1.1234, 273.95, 84.25)" opacity="1">
<path style="fill:#606AE9;fill-opacity:1" d="M3.4 0L3.4 -26.55L7.45 -26.55L7.45 -22.75Q10.35 -27.15 15.85 -27.15Q18.25 -27.15 20.25 -26.25Q22.3 -25.4 23.3 -24Q24.3 -22.6 24.7 -20.7Q24.95 -19.45 24.95 -16.3L24.95 0L20.45 0L20.45 -16.15Q20.45 -18.9 19.9 -20.25Q19.4 -21.6 18.05 -22.4Q16.7 -23.25 14.9 -23.25Q12.05 -23.25 9.95 -21.4Q7.9 -19.6 7.9 -14.5L7.9 0L3.4 0" />
</g>
<g id="PathID_12" transform="matrix(1.1234, 0, 0, 1.1234, 273.95, 84.25)" opacity="1">
</g>
<g id="PathID_13" transform="matrix(1.1234, 0, 0, 1.1234, 303.9, 84.25)" opacity="1">
<path style="fill:#606AE9;fill-opacity:1" d="M3.4 0L3.4 -36.65L7.9 -36.65L7.9 -15.75L18.5 -26.55L24.35 -26.55L14.2 -16.65L25.4 0L19.85 0L11.05 -13.55L7.9 -10.5L7.9 0L3.4 0" />
</g>
<g id="PathID_14" transform="matrix(1.1234, 0, 0, 1.1234, 303.9, 84.25)" opacity="1">
</g>
<g id="PathID_15" transform="matrix(1.45891, 1.09965, -1.08677, 1.44182, 81.65, 38.35)" opacity="1">
<path style="fill:#010203;fill-opacity:0" d="M-0.05 -9.85L21.25 -1.15L-0.05 9.85L-21.2 -1.1L-0.05 -9.85" />
</g>
<g id="PathID_16" transform="matrix(1.45891, 1.09965, -1.08677, 1.44182, 81.65, 38.35)" opacity="1">
<path style="fill:none;stroke-width:4;stroke-linecap:round;stroke-linejoin:round;stroke-miterlimit:3;stroke:#2E3AD3;stroke-opacity:1" d="M-0.05 -9.85L21.25 -1.15L-0.05 9.8L-21.15 -1.1L-0.05 -9.85z" />
</g>
<g id="PathID_17" transform="matrix(1.44182, 1.08677, -1.08677, 1.44182, 34.65, 58.15)" opacity="1">
<path style="fill:#010203;fill-opacity:0" d="M10.7 -9.45L10.7 20.55L-10.65 8.55L-10.6 -20.5L10.7 -9.45" />
</g>
<g id="PathID_18" transform="matrix(1.44182, 1.08677, -1.08677, 1.44182, 34.65, 58.15)" opacity="1">
<path style="fill:none;stroke-width:4;stroke-linecap:round;stroke-linejoin:round;stroke-miterlimit:3;stroke:#858CE9;stroke-opacity:1" d="M10.65 -9.4L10.65 20.55L-10.6 8.55L-10.6 -20.45L10.65 -9.4z" />
</g>
<g id="PathID_19" transform="matrix(1.44182, 1.08677, -1.08677, 1.44182, 74.35, 88.5)" opacity="1">
<path style="fill:#010203;fill-opacity:0" d="M10.7 8.5L-10.65 20.5L-10.65 -9.5L10.7 -20.5L10.7 8.5" />
</g>
<g id="PathID_20" transform="matrix(1.44182, 1.08677, -1.08677, 1.44182, 74.35, 88.5)" opacity="1">
<path style="fill:none;stroke-width:4;stroke-linecap:round;stroke-linejoin:round;stroke-miterlimit:3;stroke:#606AE9;stroke-opacity:1" d="M10.7 -20.5L-10.6 -9.5L-10.6 20.45L10.7 8.5L10.7 -20.5z" />
</g>
</svg>
